<?xml version="1.0" encoding="UTF-8"?>
<svg width="12px" height="12px" viewBox="0 0 12 12" version="1.1" xmlns="http://www.w3.org/2000/svg" xmlns:xlink="http://www.w3.org/1999/xlink">
    <!-- Generator: Sketch 54.1 (76490) - https://sketchapp.com -->
    <title>badge/score/good</title>
    <desc>Created with Sketch.</desc>
    <g id="badge/score/good" stroke="none" stroke-width="1" fill="none" fill-rule="evenodd">
        <circle id="Combined-Shape" fill="#FF888F" cx="6" cy="6" r="6"></circle>
        <path d="M3,5.71569262 C3,5.38638619 3.26756287,5.12007468 3.59989628,5.12007468 L3.90062727,5.12007468 C4.23186336,5.12007468 4.50052355,5.38657389 4.50052355,5.71569262 L4.50052355,7.80438207 C4.50052355,8.1336885 4.23296068,8.4 3.90062727,8.4 L3.59989628,8.4 C3.26866019,8.4 3,8.1335008 3,7.80438207 L3,5.71569262 Z M5.58780694,4.14683874 C5.62340897,3.96405652 5.62897171,3.88752675 5.62897171,3.65209408 C5.62897171,3.20792341 5.91506365,2.99999999 6.25922435,3 C6.33637028,3 6.40980666,3.00753311 6.47811673,3.02017172 C6.52102491,3.02811052 6.55477841,3.03664061 6.57773622,3.04374157 L6.48853408,3.0302652 C6.97273539,3.0302652 7.21014817,3.548879 7.21014817,4.11664582 C7.21014817,4.37576815 7.19876376,4.50981239 7.15263062,4.71456812 C7.30783696,4.7145681 7.33597728,4.71456811 7.56153533,4.71456811 C7.81521157,4.71456812 7.81521157,4.71456812 8.0388828,4.71456812 C8.23254902,4.71456812 8.23254902,4.71456812 8.33620024,4.71456812 C8.72355668,4.71456812 8.99999891,4.93132524 8.99999891,5.35620587 C8.99998658,5.52830776 8.99998658,5.52830776 8.99994958,5.79262637 C8.9999355,5.89846281 8.9999355,5.89846281 8.99992278,6.00718479 C8.9998793,6.39982765 8.99989479,6.63502743 8.99999862,6.70950389 C9.00039813,6.99605058 8.91389436,7.26593589 8.76706586,7.5337623 C8.72029043,7.61908428 8.68543512,7.67472289 8.61412092,7.78319519 C8.38034942,8.13877277 8.08415427,8.4 7.70195795,8.4 C7.39857271,8.39999998 7.39857271,8.39999998 6.88801753,8.39999991 C6.81608631,8.3999999 6.81608631,8.3999999 6.74473445,8.39999989 C6.18828123,8.39999982 6.18828123,8.39999982 6.01546088,8.39999979 C5.95949534,8.39999982 5.95949534,8.39999982 5.77073637,8.3999999 C5.72455776,8.39999991 5.72455776,8.39999991 5.67728431,8.39999993 C5.51819878,8.39999998 5.51819878,8.39999998 5.40083768,8.4 C5.06949858,8.4 4.80062826,8.13357065 4.80062826,7.80438207 L4.80162597,5.6913991 C4.82543398,5.40202728 4.91423535,5.23584212 5.12103118,4.98309871 C5.1268549,4.97598297 5.1268549,4.97598297 5.13257834,4.96898967 C5.17111344,4.92189136 5.1908951,4.8969337 5.21082706,4.86964299 C5.3673576,4.65532238 5.55869328,4.29630937 5.58780694,4.14683874 Z" id="Combined-Shape" fill="#FFFFFF"></path>
    </g>
</svg>